{"title":"Saving Grace (2000) x264 RB58.mp4","uid":10494547,"size":679414629,"categoryP":"video","categoryS":"movies","magnet":"?xt=urn:btih:0e64dd7de18be98ef3945904b2018807d826e3e8&amp;dn=Saving+Grace+%282000%29+x264+RB58.mp4&amp;tr=udp%3A%2F%2Ftracker.openbittorrent.com%3A80&amp;tr=udp%3A%2F%2Fopen.demonii.com%3A1337&amp;tr=udp%3A%2F%2Ftracker.coppersurfer.tk%3A6969&amp;tr=udp%3A%2F%2Fexodus.desync.com%3A6969","seeders":28,"leechers":2,"uploader":"RedBaron58","files":1,"time":1404594553,"description":"Saving Grace (2000 Film) DVDrip Comedy Drama x264 mp4\n &lt;a href=&quot;\nhttp://www.imdb.com/title/tt0195234/&quot; rel=&quot;nofollow&quot; target=&quot;_NEW&quot;&gt;\nhttp://www.imdb.com/title/tt0195234/&lt;/a&gt;\n\n\nPlease be patient My intial upload speed is limited, but I am online most the time and during the night.\nThank you for your kind comments and thumbs ups on my other torrents, your feedback is welcome.\n\n\nAbout the Film:\nAfter being unexpectedly widowed, reserved housewife Grace Trevethyn (Brenda Blethyn) discovers that her \nlate husband ran up significant debts and left her facing foreclosure and numerous repossessions. \nWell liked around Port Isaac, the coastal fishing town she lives in, Grace is given emotional support \nby the town's inhabitants, particularly her loyal, pot-smoking gardener Matthew Stewart (Craig Ferguson), \nhis girlfriend and the town fisherwoman Nicky (Valerie Edmond), and their friend Dr Martin Bamford (Martin Clunes). \nDespite wanting to help Grace, none of the residents are able to find a way to get her out of her dire situation. \n\n\nI hope you enjoy.\n\n\nTechnical:\n\nGeneral\nComplete name                            : G:Saving Grace (2000) x264 RB58.mp4\nFormat                                   : MPEG-4\nFormat profile                           : Base Media / Version 2\nCodec ID                                 : mp42\nFile size                                : 648 MiB\nDuration                                 : 1h 30mn\nOverall bit rate mode                    : Variable\nOverall bit rate                         : 1 000 Kbps\nEncoded date                             : UTC 2014-07-05 13:19:28\nTagged date                              : UTC 2014-07-05 13:39:07\nWriting application                      : HandBrake 0.9.8 2012071700\n\nVideo\nID                                       : 1\nFormat                                   : AVC\nFormat/Info                              : Advanced Video Codec\nFormat profile                           : &lt;a class=&quot;__cf_email__&quot; href=&quot;/cdn-cgi/l/email-protection&quot; data-cfemail=&quot;3e735f57507e720d100e&quot;&gt;[email&amp;#160;protected]&lt;/a&gt;&lt;script cf-hash='f9e31' type=&quot;text/javascript&quot;&gt;\n/* &lt;![CDATA[ */!function(){try{var t=&quot;currentScript&quot;in document?document.currentScript:function(){for(var t=document.getElementsByTagName(&quot;script&quot;),e=t.length;e--;)if(t[e].getAttribute(&quot;cf-hash&quot;))return t[e]}();if(t&amp;&amp;t.previousSibling){var e,r,n,i,c=t.previousSibling,a=c.getAttribute(&quot;data-cfemail&quot;);if(a){for(e=&quot;&quot;,r=parseInt(a.substr(0,2),16),n=2;a.length-n;n+=2)i=parseInt(a.substr(n,2),16)^r,e+=String.fromCharCode(i);e=document.createTextNode(e),c.parentNode.replaceChild(e,c)}}}catch(u){}}();/* ]]&gt; */&lt;/script&gt;\nFormat settings, CABAC                   : Yes\nFormat settings, ReFrames                : 4 frames\nCodec ID                                 : avc1\nCodec ID/Info                            : Advanced Video Coding\nDuration                                 : 1h 30mn\nBit rate mode                            : Variable\nBit rate                                 : 900 Kbps\nWidth                                    : 700 pixels\nHeight                                   : 554 pixels\nDisplay aspect ratio                     : 16:9\nFrame rate mode                          : Constant\nFrame rate                               : 25.000 fps\nColor space                              : YUV\nChroma subsampling                       : 4:2:0\nBit depth                                : 8 bits\nScan type                                : Progressive\nBits/(Pixel*Frame)                       : 0.093\nStream size                              : 583 MiB (90%)\nWriting library                          : x264 core 120\nEncoding settings                        : cabac=1 / ref=1 / deblock=1:0:0\nEncoded date                             : UTC 2014-07-05 13:19:28\nTagged date                              : UTC 2014-07-05 13:39:07\nColor primaries                          : BT.601 NTSC\nTransfer characteristics                 : BT.709\nMatrix coefficients                      : BT.601\n\nAudio\nID                                       : 2\nFormat                                   : AAC\nFormat/Info                              : Advanced Audio Codec\nFormat profile                           : LC\nCodec ID                                 : 40\nDuration                                 : 1h 30mn\nBit rate mode                            : Variable\nBit rate                                 : 96.0 Kbps\nMaximum bit rate                         : 115 Kbps\nChannel(s)                               : 2 channels\nChannel positions                        : Front: L R\nSampling rate                            : 48.0 KHz\nCompression mode                         : Lossy\nDelay relative to video                  : 80ms\nStream size                              : 62.2 MiB (10%)\nLanguage                                 : English\nEncoded date                             : UTC 2014-07-05 13:19:28\nTagged date                              : UTC 2014-07-05 13:39:05","torrent":{"xt":"urn:btih:0e64dd7de18be98ef3945904b2018807d826e3e8","amp;dn":"Saving+Grace+%282000%29+x264+RB58.mp4","amp;tr":["udp%3A%2F%2Ftracker.openbittorrent.com%3A80","udp%3A%2F%2Fopen.demonii.com%3A1337","udp%3A%2F%2Ftracker.coppersurfer.tk%3A6969","udp%3A%2F%2Fexodus.desync.com%3A6969"],"infoHash":"0e64dd7de18be98ef3945904b2018807d826e3e8","infoHashBuffer":{"type":"Buffer","data":[14,100,221,125,225,139,233,142,243,148,89,4,178,1,136,7,216,38,227,232]},"announce":[],"urlList":[]}}